# xmcd
# 
# Track frame offsets:
#     150
#     13495
#     25928
#     37701
#     52400
#     62996
#     76209
#     86991
#     103593
#     112393
#     124807
#     141229
#     150283
#     161011
#     171451
#     183933
#     194990
#     212395
#     228799
#     239930
#     255041
#     265232
#     279124
#     295424
#     306909
# 
# Disc length: 4250
# 
# Revision: 1
# Processed by: cddbd v1.5.2PL0 Copyright (c) Steve Scherf et al.
# Submitted via: fre:ac v1.0.17
# 
DISCID=73109819
DTITLE=Big Joe Turner - The very best of, CD 1
DYEAR=0
DGENRE=Blues
TTITLE0=Shake rattle and roll
TTITLE1=Flip, flop and fly
TTITLE2=Honey hush
TTITLE3=I ll never stop loving you
TTITLE4=Bump miss susie
TTITLE5=Dont you make me high
TTITLE6=Lipstick, powder and paint
TTITLE7=Roll em pete
TTITLE8=I need a girl
TTITLE9=TV Mama
TTITLE10=Low down dog
TTITLE11=Rock a while
TTITLE12=World of trouble
TTITLE13=Blues in the night
TTITLE14=Married woman blues
TTITLE15=Well all right
TTITLE16=Time after time
TTITLE17=Nobody in mind
TTITLE18=Dont you cry
TTITLE19=Cherry Red
TTITLE20=Wee baby blues
TTITLE21=You know i love you
TTITLE22=Switchin in the kitchen
TTITLE23=After a while
TTITLE24=Morning noon and night
EXTD=
EXTT0=
EXTT1=
EXTT2=
EXTT3=
EXTT4=
EXTT5=
EXTT6=
EXTT7=
EXTT8=
EXTT9=
EXTT10=
EXTT11=
EXTT12=
EXTT13=
EXTT14=
EXTT15=
EXTT16=
EXTT17=
EXTT18=
EXTT19=
EXTT20=
EXTT21=
EXTT22=
EXTT23=
EXTT24=
PLAYORDER=
